# xmcd
#
# Track frame offsets: 
#        150
#        18916
#        35170
#        50051
#        69227
#        86280
#        102286
#        118796
#        138178
#        159478
#        177658
#        194416
#        215960
#        235932
#        251344
#
# Disc length: 3596 seconds
#
# Revision: 0
# Processed by: cddbd v1.5.2PL0 Copyright (c) Steve Scherf et al.
# Submitted via: ExactAudioCopy v0.99pb4
#
DISCID=d50e0a0f
DTITLE=Jennifer Hudson - Jennifer Hudson
DYEAR=2008
DGENRE=R&B
TTITLE0=Spotlight
TTITLE1=If This Isn't Love
TTITLE2=Pocketbook
TTITLE3=Giving Myself
TTITLE4=What's Wrong (Go Away)
TTITLE5=My Heart
TTITLE6=You Pulled Me Through
TTITLE7=I'm His Only Woman
TTITLE8=Can't Stop The Rain
TTITLE9=We Gon' Fight
TTITLE10=Invisible
TTITLE11=And I'm Telling You I'm Not Going
TTITLE12=Jesus Promised Me A Home Over There
TTITLE13=All Dressed In Love
TTITLE14=Stand Up
EXTD=
EXTT0=
EXTT1=
EXTT2=
EXTT3=
EXTT4=
EXTT5=
EXTT6=
EXTT7=
EXTT8=
EXTT9=
EXTT10=
EXTT11=
EXTT12=
EXTT13=
EXTT14=
PLAYORDER=
